<?xml version="1.0" standalone="yes"?>
<svg width="600" height="523">
<path style="fill:#feffff" d="M600 0 L600 523 L0 523 L0 0 L600 0 z"/>
<path style="fill:#606060" d="M142 40 C142.2 41.18 140.7 41.02 140 41 C139.8 39.82 141.3 39.98 142 40 z"/>
<path style="fill:#0" d="M442 40 C441.8 41.18 443.3 41.02 444 41 L446 41 L447 42 L450 43 L451 44 L456 49 L457 50 L457 51 L458 52 L458 53 L459 54 L459 56 L459 58 L459 358 L459 360 L459 361 L458 362 L455 368 L454 369 L453 370 L452 371 L450 372 L449 373 L448 373 L447 374 L446 374 C445.3 374 443.8 373.8 444 375 L441 375 L153 374 L154 373 L157 369 L158 368 L159 367 L161 364 L162 363 L163 362 L165 359 L166 358 L167 357 L170 353 L171 352 L172 351 L174 348 L175 347 L176 346 L179 342 L180 341 L181 340 L183 337 L184 336 L185 335 L188 331 L189 330 L190 329 L192 326 L193 325 L194 324 L197 320 L198 319 L199 318 L201 315 L202 314 L203 313 L206 309 L207 308 L208 307 L210 304 L211 303 L212 302 L215 298 L216 297 L217 296 L219 293 L220 292 L221 291 C221.3 289.7 222.7 288.7 224 289 L225 290 L227 290 L228 291 L229 291 L230 292 L231 292 L232 293 L234 293 L235 294 L236 294 L237 295 L238 295 L239 296 L241 296 L242 297 L243 297 L244 298 L245 298 L246 299 L248 299 L249 300 L250 300 L251 301 L252 301 L253 302 L255 302 L256 303 L257 303 L258 304 L259 304 L260 305 L264 306 L265 307 L266 307 L267 308 L271 309 L272 310 L273 310 L274 311 L278 312 L279 313 L280 313 L281 314 L285 315 L286 316 L287 316 L288 317 L292 318 L293 319 L294 319 L295 320 L299 321 L300 322 L301 322 L302 323 L306 324 L307 325 L308 325 L309 326 L313 327 L314 328 L315 328 L316 329 L317 329 L318 330 L320 330 L321 331 L322 331 L323 332 L324 332 L325 333 L327 333 L328 334 L329 334 L330 335 L331 335 L332 336 L334 336 L335 337 L336 337 L337 338 L338 338 L339 339 L341 339 L342 340 L343 340 L344 341 L345 341 L346 342 L348 342 L349 343 L350 343 L351 344 L352 344 L353 345 L355 345 L356 346 L357 346 L358 347 L359 347 L360 348 C361.6 348.3 363.7 347.9 364 346 L365 345 L366 343 L367 342 L367 341 L368 340 L373 329 L374 328 L374 327 L375 326 L375 325 L376 324 L376 323 L377 322 L377 320 L378 319 L378 318 L379 317 L380 313 L381 312 L381 311 L382 310 L382 308 L383 307 L384 303 L385 302 L380 298 L379 297 L378 297 L377 296 L373 294 L372 293 L369 291 L368 290 L366 289 L365 288 L364 287 L361 285 L360 284 L359 283 L345 269 L344 268 L343 267 L342 266 L340 263 L339 262 L337 259 L336 258 L331 250 L330 249 L329 247 L328 246 L328 245 L327 244 L324 238 L324 237 L327 240 L328 241 L330 244 L331 245 L332 246 L333 247 L337 252 L338 253 L339 254 L340 255 L341 256 L342 257 L343 258 L344 259 L345 260 L346 261 L347 262 L348 263 L349 264 L355 269 L356 270 L357 271 L358 272 L362 275 L363 276 L366 278 L367 279 L368 280 L370 281 L371 282 L372 283 L374 284 L375 285 L377 286 L378 287 L380 288 L381 289 L383 290 L384 291 L386 292 C385.8 293.3 388.2 293.3 388 292 L388 291 C389.2 291.2 389 289.7 389 289 L389 287 C390.2 287.2 390 285.7 390 285 L390 282 C391.2 282.2 391 280.7 391 280 L391 277 C392.6 276.9 391.8 274.9 392 274 L392 272 L393 267 L393 242 L392 237 L392 233 L391 229 L391 227 L391 225 C391 224.3 391.2 222.8 390 223 L390 220 C390 219.3 390.2 217.8 389 218 L389 215 C389 214.3 389.2 212.8 388 213 L388 211 C388 210.3 388.2 208.8 387 209 L387 207 C387 206.3 387.2 204.8 386 205 L386 204 C386 203.3 386.2 201.8 385 202 L385 200 C385 199.3 385.2 197.8 384 198 L384 197 C384 196.3 384.2 194.8 383 195 L383 193 L382 192 L382 190 L381 189 L381 187 L380 186 L380 185 L379 184 L379 182 L378 181 L377 180 L376 179 L368 177 L367 176 L365 176 C365.2 174.8 363.7 175 363 175 L362 175 C362.2 173.8 360.7 174 360 174 L358 174 L357 173 L356 173 C356.2 171.8 354.7 172 354 172 L349 171 L348 170 L346 170 C346.2 168.8 344.7 169 344 169 L343 169 L344 168 L347 168 C346.8 169.2 348.3 169 349 169 L351 169 C350.8 170.2 352.3 170 353 170 L357 170 C356.8 171.2 358.3 171 359 171 L360 171 C360.1 172.6 362.1 171.8 363 172 L367 172 C366.8 173.2 368.3 173 369 173 L373 173 C373.1 174.6 375.1 173.8 376 174 L378 174 L382 175 C385.8 174.6 391.3 176.6 393 172 L394 171 L394 169 L395 165 L395 159 L394 154 L394 151 C393.8 150.1 394.6 148.1 393 148 L393 145 L393 143 C393 142.3 393.2 140.8 392 141 L391 134 C391 133.3 391.2 131.8 390 132 L390 131 C390 130.3 390.2 128.8 389 129 L389 127 C389 126.3 389.2 124.8 388 125 L388 124 C388 123.3 388.2 121.8 387 122 L387 120 C387 119.3 387.2 117.8 386 118 L386 117 C386 116.3 386.2 114.8 385 115 L385 114 C385 113.3 385.2 111.8 384 112 L383 108 L382 107 L382 106 L381 105 L381 104 L380 103 L379 100 L378 99 L378 98 L377 97 L375 95 L374 94 L372 93 L371 92 L367 91 L366 90 L364 90 L363 89 L361 89 L360 88 L358 88 C358.2 86.82 356.7 86.98 356 87 L355 87 C355.2 85.82 353.7 85.98 353 86 L351 86 C351.2 84.82 349.7 84.98 349 85 L346 85 C346.2 83.82 344.7 83.98 344 84 L341 84 C341.2 82.82 339.7 82.98 339 83 L336 83 C336.2 81.82 334.7 81.98 334 82 L331 82 C331.2 80.82 329.7 80.98 329 81 L326 81 C325.9 79.41 323.9 80.19 323 80 L319 80 C318.9 78.41 316.9 79.19 316 79 L312 79 C311.9 77.41 309.9 78.19 309 78 L302 78 L297 77 L294 77 C293.9 75.41 291.9 76.19 291 76 L285 76 L281 76 L275 75 L264 76 L254 76 L250 77 L248 77 L246 77 C245.3 76.98 243.8 76.82 244 78 L242 78 C241.3 77.98 239.8 77.82 240 79 L238 79 C237.3 78.98 235.8 78.82 236 80 L235 80 C234.3 79.98 232.8 79.82 233 81 L232 81 L231 82 L229 82 L228 83 L227 83 L226 84 C224 84.21 226.2 85.56 227 85 C226.8 86.18 228.3 86.02 229 86 L234 86 C233.8 87.18 235.3 87.02 236 87 L238 87 C237.8 88.18 239.3 88.02 240 88 L243 88 C242.8 89.18 244.3 89.02 245 89 L248 89 C248.2 90.18 246.7 90.02 246 90 L242 90 L238 89 L232 89 C231.9 87.41 229.9 88.19 229 88 L225 88 L221 87 L217 87 L213 86 L211 86 L207 85 L203 85 L199 84 L195 84 L191 83 C187.6 82.2 184.4 83.9 183 87 L182 88 L181 89 L180 90 L178 93 L177 94 L176 96 L175 97 L174 99 L173 100 L173 101 L172 102 L172 103 L171 104 L171 105 L170 106 L170 108 C168.8 107.8 169 109.3 169 110 L169 112 C167.3 113.7 167.3 119.3 169 121 L169 123 L170 124 L170 126 L171 127 L171 128 L172 129 L173 131 L174 132 L176 135 L177 136 L178 137 L179 138 L180 139 L181 140 L182 141 L183 142 L184 143 L185 144 L188 146 L189 147 L190 148 L192 149 L193 150 L195 151 L196 152 L208 158 L209 159 L210 159 L211 160 L212 160 L213 161 L214 161 L215 162 L216 162 L217 163 L218 163 L217 164 L216 164 L215 164 L214 163 L210 162 L209 161 L208 161 L207 160 L205 160 L204 159 L203 159 L202 158 L200 158 L199 157 L198 157 L197 156 L196 156 L195 155 L193 155 L192 154 L188 154 C187.3 154 185.8 153.8 186 155 L185 155 C184.3 155 182.8 154.8 183 156 L181 156 C180.3 156 178.8 155.8 179 157 L177 157 C176.3 157 174.8 156.8 175 158 L174 158 C173.3 158 171.8 157.8 172 159 L170 159 C169.3 159 167.8 158.8 168 160 L167 160 C166.3 160 164.8 159.8 165 161 L163 161 C162.3 161 160.8 160.8 161 162 L160 162 C159.3 162 157.8 161.8 158 163 L156 163 C155.3 163 153.8 162.8 154 164 L152 164 C151.3 164 149.8 163.8 150 165 L149 165 C148.3 165 146.8 164.8 147 166 L145 166 C144.3 166 142.8 165.8 143 167 L141 167 C140.3 167 138.8 166.8 139 168 L138 168 C137.3 168 135.8 167.8 136 169 L134 169 C133.3 169 131.8 168.8 132 170 L131 170 C130.3 170 128.8 169.8 129 171 L126 171 L125 59 L125 56 L125 55 C126.2 55.15 126 53.66 126 53 L126 52 L127 51 L128 49 L129 48 L133 44 L134 43 L135 43 L136 42 L137 42 L138 41 L140 41 C140.7 41.02 142.2 41.18 142 40 L442 40 z"/>
<path style="fill:#585858" d="M444 41 C443.3 41.02 441.8 41.18 442 40 C442.7 39.98 444.2 39.82 444 41 z"/>
<path style="fill:#606060" d="M138 41 L137 42 L138 41 z"/>
<path style="fill:#606060" d="M447 42 L446 41 L447 42 z"/>
<path style="fill:#606060" d="M136 42 L135 43 L136 42 z"/>
<path style="fill:#909090" d="M134 43 L133 44 L134 43 z"/>
<path style="fill:#808080" d="M451 44 L450 43 L451 44 z"/>
<path style="fill:#606060" d="M129 48 L128 49 L129 48 z"/>
<path style="fill:#909090" d="M457 50 L456 49 L457 50 z"/>
<path style="fill:#808080" d="M127 51 L126 52 L127 51 z"/>
<path style="fill:#606060" d="M458 52 L457 51 L458 52 z"/>
<path style="fill:#787878" d="M126 53 C126 53.66 126.2 55.15 125 55 C125 54.34 124.8 52.85 126 53 z"/>
<path style="fill:#909090" d="M459 54 L458 53 L459 54 z"/>
<path style="fill:#9a9b9b" d="M125 56 L125 59 L124 59 C124.2 58.05 123.4 56.06 125 56 z"/>
<path style="fill:#909090" d="M460 58 L459 58 L459 56 C460.2 55.85 460 57.34 460 58 z"/>
<path style="fill:#404040" d="M460 58 L460 358 L459 358 L459 58 L460 58 z"/>
<path style="fill:#404040" d="M125 59 L126 171 L124 59 L125 59 z"/>
<path style="fill:#7d7d7d" d="M275 75 L275 76 L264 76 L275 75 z"/>
<path style="fill:#3a3b3b" d="M281 76 L275 76 L275 75 L281 76 z"/>
<path style="fill:#686868" d="M254 76 L250 77 L254 76 z"/>
<path style="fill:#a2a3a3" d="M291 76 L291 77 L285 76 L291 76 z"/>
<path style="fill:#4a4b4b" d="M294 77 L291 77 L291 76 C291.9 76.19 293.9 75.41 294 77 z"/>
<path style="fill:#585858" d="M246 77 L246 78 L244 78 C243.8 76.82 245.3 76.98 246 77 z"/>
<path style="fill:#a8a8a8" d="M248 77 C248.2 78.18 246.7 78.02 246 78 L246 77 L248 77 z"/>
<path style="fill:#a0a0a0" d="M302 78 L297 77 L302 78 z"/>
<path style="fill:#707070" d="M242 78 C242.2 79.18 240.7 79.02 240 79 C239.8 77.82 241.3 77.98 242 78 z"/>
<path style="fill:#606060" d="M312 79 C311.1 78.81 309.1 79.59 309 78 C309.9 78.19 311.9 77.41 312 79 z"/>
<path style="fill:#707070" d="M238 79 C238.2 80.18 236.7 80.02 236 80 C235.8 78.82 237.3 78.98 238 79 z"/>
<path style="fill:#656565" d="M319 80 C318.1 79.81 316.1 80.59 316 79 C316.9 79.19 318.9 78.41 319 80 z"/>
<path style="fill:#787878" d="M235 80 C235.2 81.18 233.7 81.02 233 81 C232.8 79.82 234.3 79.98 235 80 z"/>
<path style="fill:#606060" d="M326 81 C325.1 80.81 323.1 81.59 323 80 C323.9 80.19 325.9 79.41 326 81 z"/>
<path style="fill:#a0a0a0" d="M232 81 L231 82 L232 81 z"/>
<path style="fill:#707070" d="M331 82 C330.3 82.02 328.8 82.18 329 81 C329.7 80.98 331.2 80.82 331 82 z"/>
<path style="fill:#606060" d="M229 82 L228 83 L229 82 z"/>
<path style="fill:#909090" d="M336 83 C335.3 83.02 333.8 83.18 334 82 C334.7 81.98 336.2 81.82 336 83 z"/>
<path style="fill:#686868" d="M195 84 L191 83 L195 84 z"/>
<path style="fill:#808080" d="M227 83 L226 84 L227 83 z"/>
<path style="fill:#989898" d="M341 84 C340.3 84.02 338.8 84.18 339 83 C339.7 82.98 341.2 82.82 341 84 z"/>
<path style="fill:#606060" d="M203 85 L199 84 L203 85 z"/>
<path style="fill:#888888" d="M346 85 C345.3 85.02 343.8 85.18 344 84 C344.7 83.98 346.2 83.82 346 85 z"/>
<path style="fill:#5c5c5c" d="M211 86 L207 85 L211 86 z"/>
<path style="fill:#585858" d="M229 86 C228.3 86.02 226.8 86.18 227 85 C227.7 84.98 229.2 84.82 229 86 z"/>
<path style="fill:#606060" d="M351 86 C350.3 86.02 348.8 86.18 349 85 C349.7 84.98 351.2 84.82 351 86 z"/>
<path style="fill:#989898" d="M217 87 L213 86 L217 87 z"/>
<path style="fill:#a8a8a8" d="M236 87 C235.3 87.02 233.8 87.18 234 86 C234.7 85.98 236.2 85.82 236 87 z"/>
<path style="fill:#606060" d="M355 87 C354.3 87.02 352.8 87.18 353 86 C353.7 85.98 355.2 85.82 355 87 z"/>
<path style="fill:#a0a0a0" d="M183 87 L182 88 L183 87 z"/>
<path style="fill:#909090" d="M225 88 L221 87 L225 88 z"/>
<path style="fill:#686868" d="M240 88 C239.3 88.02 237.8 88.18 238 87 C238.7 86.98 240.2 86.82 240 88 z"/>
<path style="fill:#909090" d="M358 88 C357.3 88.02 355.8 88.18 356 87 C356.7 86.98 358.2 86.82 358 88 z"/>
<path style="fill:#909090" d="M182 88 L181 89 L182 88 z"/>
<path style="fill:#a0a0a0" d="M232 89 C231.1 88.81 229.1 89.59 229 88 C229.9 88.19 231.9 87.41 232 89 z"/>
<path style="fill:#606060" d="M245 89 C244.3 89.02 242.8 89.18 243 88 C243.7 87.98 245.2 87.82 245 89 z"/>
<path style="fill:#909090" d="M361 89 L360 88 L361 89 z"/>
<path style="fill:#606060" d="M181 89 L180 90 L181 89 z"/>
<path style="fill:#686868" d="M242 90 L238 89 L242 90 z"/>
<path style="fill:#6e6e6e" d="M252 90 C251.3 89.98 249.8 89.82 250 91 L246 90 C246.7 90.02 248.2 90.18 248 89 L252 90 z"/>
<path style="fill:#a0a0a0" d="M364 90 L363 89 L364 90 z"/>
<path style="fill:#0c0c0c" d="M252 90 L254 90 L254 91 L250 91 C249.8 89.82 251.3 89.98 252 90 z"/>
<path style="fill:#505050" d="M260 91 L260 92 L254 91 L254 90 L260 91 z"/>
<path style="fill:#909090" d="M367 91 L366 90 L367 91 z"/>
<path style="fill:#989898" d="M260 92 L260 91 L266.8 92.25 C265.8 93.41 260.9 93.72 260 92 z"/>
<path style="fill:#606060" d="M372 93 L371 92 L372 93 z"/>
<path style="fill:#808080" d="M178 93 L177 94 L178 93 z"/>
<path style="fill:#909090" d="M375 95 L374 94 L375 95 z"/>
<path style="fill:#909090" d="M176 96 L175 97 L176 96 z"/>
<path style="fill:#707070" d="M378 98 L377 97 L378 98 z"/>
<path style="fill:#707070" d="M174 99 L173 100 L174 99 z"/>
<path style="fill:#a0a0a0" d="M379 100 L378 99 L379 100 z"/>
<path style="fill:#808080" d="M173 101 L172 102 L173 101 z"/>
<path style="fill:#808080" d="M172 103 L171 104 L172 103 z"/>
<path style="fill:#a0a0a0" d="M381 104 L380 103 L381 104 z"/>
<path style="fill:#606060" d="M171 105 L170 106 L171 105 z"/>
<path style="fill:#808080" d="M382 106 L381 105 L382 106 z"/>
<path style="fill:#606060" d="M383 108 L382 107 L383 108 z"/>
<path style="fill:#989898" d="M170 108 C170 108.7 170.2 110.2 169 110 C169 109.3 168.8 107.8 170 108 z"/>
<path style="fill:#a5a5a5" d="M169 112 L169 121 C167.3 119.3 167.3 113.7 169 112 z"/>
<path style="fill:#787878" d="M385 114 C383.8 114.2 384 112.7 384 112 C385.2 111.8 385 113.3 385 114 z"/>
<path style="fill:#787878" d="M386 117 C384.8 117.2 385 115.7 385 115 C386.2 114.8 386 116.3 386 117 z"/>
<path style="fill:#787878" d="M387 120 C385.8 120.2 386 118.7 386 118 C387.2 117.8 387 119.3 387 120 z"/>
<path style="fill:#b0b0b0" d="M388 124 C386.8 124.2 387 122.7 387 122 C388.2 121.8 388 123.3 388 124 z"/>
<path style="fill:#a0a0a0" d="M170 124 L169 123 L170 124 z"/>
<path style="fill:#888888" d="M389 127 C387.8 127.2 388 125.7 388 125 C389.2 124.8 389 126.3 389 127 z"/>
<path style="fill:#606060" d="M171 127 L170 126 L171 127 z"/>
<path style="fill:#606060" d="M172 129 L171 128 L172 129 z"/>
<path style="fill:#a0a0a0" d="M390 131 C388.8 131.2 389 129.7 389 129 C390.2 128.8 390 130.3 390 131 z"/>
<path style="fill:#808080" d="M174 132 L173 131 L174 132 z"/>
<path style="fill:#606060" d="M391 134 C389.8 134.2 390 132.7 390 132 C391.2 131.8 391 133.3 391 134 z"/>
<path style="fill:#707070" d="M177 136 L176 135 L177 136 z"/>
<path style="fill:#a0a0a0" d="M178 137 L177 136 L178 137 z"/>
<path style="fill:#a0a0a0" d="M179 138 L178 137 L179 138 z"/>
<path style="fill:#a0a0a0" d="M180 139 L179 138 L180 139 z"/>
<path style="fill:#a0a0a0" d="M181 140 L180 139 L181 140 z"/>
<path style="fill:#a0a0a0" d="M182 141 L181 140 L182 141 z"/>
<path style="fill:#a0a0a0" d="M183 142 L182 141 L183 142 z"/>
<path style="fill:#585858" d="M393 143 L392 143 L392 141 C393.2 140.8 393 142.3 393 143 z"/>
<path style="fill:#909090" d="M184 143 L183 142 L184 143 z"/>
<path style="fill:#606060" d="M185 144 L184 143 L185 144 z"/>
<path style="fill:#b0b0b0" d="M393 143 L393 145 C391.8 145.2 392 143.7 392 143 L393 143 z"/>
<path style="fill:#a0a0a0" d="M189 147 L188 146 L189 147 z"/>
<path style="fill:#606060" d="M190 148 L189 147 L190 148 z"/>
<path style="fill:#a0a0a0" d="M394 151 C392.4 150.9 393.2 148.9 393 148 C394.6 148.1 393.8 150.1 394 151 z"/>
<path style="fill:#808080" d="M193 150 L192 149 L193 150 z"/>
<path style="fill:#808080" d="M196 152 L195 151 L196 152 z"/>
<path style="fill:#808080" d="M188 154 C188.2 155.2 186.7 155 186 155 C185.8 153.8 187.3 154 188 154 z"/>
<path style="fill:#909090" d="M193 155 L192 154 L193 155 z"/>
<path style="fill:#696a6a" d="M395 159 L394 159 L394 154 L395 159 z"/>
<path style="fill:#b0b0b0" d="M185 155 C185.2 156.2 183.7 156 183 156 C182.8 154.8 184.3 155 185 155 z"/>
<path style="fill:#606060" d="M196 156 L195 155 L196 156 z"/>
<path style="fill:#888888" d="M181 156 C181.2 157.2 179.7 157 179 157 C178.8 155.8 180.3 156 181 156 z"/>
<path style="fill:#808080" d="M198 157 L197 156 L198 157 z"/>
<path style="fill:#707070" d="M177 157 C177.2 158.2 175.7 158 175 158 C174.8 156.8 176.3 157 177 157 z"/>
<path style="fill:#a0a0a0" d="M200 158 L199 157 L200 158 z"/>
<path style="fill:#909090" d="M174 158 C174.2 159.2 172.7 159 172 159 C171.8 157.8 173.3 158 174 158 z"/>
<path style="fill:#606060" d="M203 159 L202 158 L203 159 z"/>
<path style="fill:#606060" d="M209 159 L208 158 L209 159 z"/>
<path style="fill:#787878" d="M170 159 C170.2 160.2 168.7 160 168 160 C167.8 158.8 169.3 159 170 159 z"/>
<path style="fill:#a0a0a0" d="M205 160 L204 159 L205 160 z"/>
<path style="fill:#606060" d="M211 160 L210 159 L211 160 z"/>
<path style="fill:#b8b8b8" d="M395 159 L395 165 L394 165 L394 159 L395 159 z"/>
<path style="fill:#a8a8a8" d="M167 160 C167.2 161.2 165.7 161 165 161 C164.8 159.8 166.3 160 167 160 z"/>
<path style="fill:#606060" d="M208 161 L207 160 L208 161 z"/>
<path style="fill:#606060" d="M213 161 L212 160 L213 161 z"/>
<path style="fill:#808080" d="M163 161 C163.2 162.2 161.7 162 161 162 C160.8 160.8 162.3 161 163 161 z"/>
<path style="fill:#808080" d="M210 162 L209 161 L210 162 z"/>
<path style="fill:#606060" d="M215 162 L214 161 L215 162 z"/>
<path style="fill:#b0b0b0" d="M160 162 C160.2 163.2 158.7 163 158 163 C157.8 161.8 159.3 162 160 162 z"/>
<path style="fill:#606060" d="M217 163 L216 162 L217 163 z"/>
<path style="fill:#909090" d="M156 163 C156.2 164.2 154.7 164 154 164 C153.8 162.8 155.3 163 156 163 z"/>
<path style="fill:#707070" d="M215 164 L214 163 L215 164 z"/>
<path style="fill:#2e2f2f" d="M226 167 L226 168 L222 167 L221 166 L217 165 L217 164 L218 163 L226 167 z"/>
<path style="fill:#707070" d="M152 164 C152.2 165.2 150.7 165 150 165 C149.8 163.8 151.3 164 152 164 z"/>
<path style="fill:#a0a0a0" d="M217 164 L217 165 L216 164 L217 164 z"/>
<path style="fill:#989898" d="M149 165 C149.2 166.2 147.7 166 147 166 C146.8 164.8 148.3 165 149 165 z"/>
<path style="fill:#929393" d="M336 166 L336 167 C331.1 167.2 332.8 162.9 336 166 z"/>
<path style="fill:#686868" d="M395 165 L394 169 L394 165 L395 165 z"/>
<path style="fill:#808080" d="M145 166 C145.2 167.2 143.7 167 143 167 C142.8 165.8 144.3 166 145 166 z"/>
<path style="fill:#909090" d="M222 167 L221 166 L222 167 z"/>
<path style="fill:#525353" d="M344 168 L343 169 L336 167 L336 166 L344 168 z"/>
<path style="fill:#606060" d="M141 167 C141.2 168.2 139.7 168 139 168 C138.8 166.8 140.3 167 141 167 z"/>
<path style="fill:#808080" d="M227 168 L227 169 L226 168 L226 167 L227 168 z"/>
<path style="fill:#888888" d="M138 168 C138.2 169.2 136.7 169 136 169 C135.8 167.8 137.3 168 138 168 z"/>
<path style="fill:#202020" d="M228 168 L228 169 L227 169 L227 168 L228 168 z"/>
<path style="fill:#7c7c7c" d="M231 170 C230.1 169.8 228.1 170.6 228 169 L228 168 L231 170 z"/>
<path style="fill:#989898" d="M349 169 C348.3 169 346.8 169.2 347 168 C347.7 168 349.2 167.8 349 169 z"/>
<path style="fill:#707070" d="M134 169 C134.2 170.2 132.7 170 132 170 C131.8 168.8 133.3 169 134 169 z"/>
<path style="fill:#808080" d="M346 170 C345.3 170 343.8 170.2 344 169 C344.7 169 346.2 168.8 346 170 z"/>
<path style="fill:#686868" d="M353 170 C352.3 170 350.8 170.2 351 169 C351.7 169 353.2 168.8 353 170 z"/>
<path style="fill:#909090" d="M131 170 C131.2 171.2 129.7 171 129 171 C128.8 169.8 130.3 170 131 170 z"/>
<path style="fill:#808080" d="M231 170 C234.2 169.3 231.7 172.5 231 170 z"/>
<path style="fill:#606060" d="M349 171 L348 170 L349 171 z"/>
<path style="fill:#a8a8a8" d="M359 171 C358.3 171 356.8 171.2 357 170 C357.7 170 359.2 169.8 359 171 z"/>
<path style="fill:#5a5b5b" d="M363 172 C362.1 171.8 360.1 172.6 360 171 C360.9 171.2 362.9 170.4 363 172 z"/>
<path style="fill:#606060" d="M394 171 L393 172 L394 171 z"/>
<path style="fill:#505050" d="M356 173 C355.3 173 353.8 173.2 354 172 C354.7 172 356.2 171.8 356 173 z"/>
<path style="fill:#989898" d="M369 173 C368.3 173 366.8 173.2 367 172 C367.7 172 369.2 171.8 369 173 z"/>
<path style="fill:#909090" d="M358 174 L357 173 L358 174 z"/>
<path style="fill:#a5a5a5" d="M376 174 C375.1 173.8 373.1 174.6 373 173 C373.9 173.2 375.9 172.4 376 174 z"/>
<path style="fill:#707070" d="M362 175 C361.3 175 359.8 175.2 360 174 C360.7 174 362.2 173.8 362 175 z"/>
<path style="fill:#646464" d="M382 175 L378 174 L382 175 z"/>
<path style="fill:#787878" d="M365 176 C364.3 176 362.8 176.2 363 175 C363.7 175 365.2 174.8 365 176 z"/>
<path style="fill:#606060" d="M368 177 L367 176 L368 177 z"/>
<path style="fill:#909090" d="M377 180 L376 179 L377 180 z"/>
<path style="fill:#707070" d="M379 182 L378 181 L379 182 z"/>
<path style="fill:#a0a0a0" d="M380 185 L379 184 L380 185 z"/>
<path style="fill:#606060" d="M381 187 L380 186 L381 187 z"/>
<path style="fill:#707070" d="M382 190 L381 189 L382 190 z"/>
<path style="fill:#707070" d="M383 193 L382 192 L383 193 z"/>
<path style="fill:#909090" d="M384 197 C382.8 197.2 383 195.7 383 195 C384.2 194.8 384 196.3 384 197 z"/>
<path style="fill:#787878" d="M385 200 C383.8 200.2 384 198.7 384 198 C385.2 197.8 385 199.3 385 200 z"/>
<path style="fill:#a0a0a0" d="M386 204 C384.8 204.2 385 202.7 385 202 C386.2 201.8 386 203.3 386 204 z"/>
<path style="fill:#707070" d="M387 207 C385.8 207.2 386 205.7 386 205 C387.2 204.8 387 206.3 387 207 z"/>
<path style="fill:#707070" d="M388 211 C386.8 211.2 387 209.7 387 209 C388.2 208.8 388 210.3 388 211 z"/>
<path style="fill:#606060" d="M389 215 C387.8 215.2 388 213.7 388 213 C389.2 212.8 389 214.3 389 215 z"/>
<path style="fill:#686868" d="M390 220 C388.8 220.2 389 218.7 389 218 C390.2 217.8 390 219.3 390 220 z"/>
<path style="fill:#585858" d="M391 225 L390 225 L390 223 C391.2 222.8 391 224.3 391 225 z"/>
<path style="fill:#a8a8a8" d="M391 225 L391 227 C389.8 227.2 390 225.7 390 225 L391 225 z"/>
<path style="fill:#707070" d="M392 233 L391 229 L392 233 z"/>
<path style="fill:#909090" d="M324 236 L323 236 C320.3 234.8 323.9 233.2 324 236 z"/>
<path style="fill:#202020" d="M324 236 L324 237 L323 237 L323 236 L324 236 z"/>
<path style="fill:#a0a0a0" d="M324 237 L324 238 L323 237 L324 237 z"/>
<path style="fill:#666666" d="M393 242 L392 237 L393 242 z"/>
<path style="fill:#a0a0a0" d="M328 241 L327 240 L328 241 z"/>
<path style="fill:#707070" d="M328 245 L327 244 L328 245 z"/>
<path style="fill:#606060" d="M331 245 L330 244 L331 245 z"/>
<path style="fill:#909090" d="M332 246 L331 245 L332 246 z"/>
<path style="fill:#909090" d="M329 247 L328 246 L329 247 z"/>
<path style="fill:#a0a0a0" d="M333 247 L332 246 L333 247 z"/>
<path style="fill:#707070" d="M331 250 L330 249 L331 250 z"/>
<path style="fill:#606060" d="M338 253 L337 252 L338 253 z"/>
<path style="fill:#606060" d="M339 254 L338 253 L339 254 z"/>
<path style="fill:#606060" d="M340 255 L339 254 L340 255 z"/>
<path style="fill:#606060" d="M341 256 L340 255 L341 256 z"/>
<path style="fill:#606060" d="M342 257 L341 256 L342 257 z"/>
<path style="fill:#606060" d="M343 258 L342 257 L343 258 z"/>
<path style="fill:#707070" d="M337 259 L336 258 L337 259 z"/>
<path style="fill:#606060" d="M344 259 L343 258 L344 259 z"/>
<path style="fill:#606060" d="M345 260 L344 259 L345 260 z"/>
<path style="fill:#606060" d="M346 261 L345 260 L346 261 z"/>
<path style="fill:#606060" d="M347 262 L346 261 L347 262 z"/>
<path style="fill:#707070" d="M340 263 L339 262 L340 263 z"/>
<path style="fill:#606060" d="M348 263 L347 262 L348 263 z"/>
<path style="fill:#606060" d="M349 264 L348 263 L349 264 z"/>
<path style="fill:#a0a0a0" d="M343 267 L342 266 L343 267 z"/>
<path style="fill:#808080" d="M344 268 L343 267 L344 268 z"/>
<path style="fill:#636363" d="M393 267 L392 272 L393 267 z"/>
<path style="fill:#606060" d="M345 269 L344 268 L345 269 z"/>
<path style="fill:#a0a0a0" d="M356 270 L355 269 L356 270 z"/>
<path style="fill:#909090" d="M357 271 L356 270 L357 271 z"/>
<path style="fill:#606060" d="M358 272 L357 271 L358 272 z"/>
<path style="fill:#a0a0a0" d="M392 274 C391.8 274.9 392.6 276.9 391 277 C391.2 276.1 390.4 274.1 392 274 z"/>
<path style="fill:#808080" d="M363 276 L362 275 L363 276 z"/>
<path style="fill:#a0a0a0" d="M367 279 L366 278 L367 279 z"/>
<path style="fill:#606060" d="M368 280 L367 279 L368 280 z"/>
<path style="fill:#a8a8a8" d="M391 280 C391 280.7 391.2 282.2 390 282 C390 281.3 389.8 279.8 391 280 z"/>
<path style="fill:#a0a0a0" d="M371 282 L370 281 L371 282 z"/>
<path style="fill:#606060" d="M372 283 L371 282 L372 283 z"/>
<path style="fill:#606060" d="M360 284 L359 283 L360 284 z"/>
<path style="fill:#a0a0a0" d="M361 285 L360 284 L361 285 z"/>
<path style="fill:#808080" d="M375 285 L374 284 L375 285 z"/>
<path style="fill:#909090" d="M390 285 C390 285.7 390.2 287.2 389 287 C389 286.3 388.8 284.8 390 285 z"/>
<path style="fill:#909090" d="M378 287 L377 286 L378 287 z"/>
<path style="fill:#606060" d="M365 288 L364 287 L365 288 z"/>
<path style="fill:#909090" d="M366 289 L365 288 L366 289 z"/>
<path style="fill:#909090" d="M381 289 L380 288 L381 289 z"/>
<path style="fill:#606060" d="M225 290 L224 289 L225 290 z"/>
<path style="fill:#808080" d="M389 289 C389 289.7 389.2 291.2 388 291 C388 290.3 387.8 288.8 389 289 z"/>
<path style="fill:#a0a0a0" d="M228 291 L227 290 L228 291 z"/>
<path style="fill:#606060" d="M369 291 L368 290 L369 291 z"/>
<path style="fill:#808080" d="M384 291 L383 290 L384 291 z"/>
<path style="fill:#606060" d="M221 291 L220 292 L221 291 z"/>
<path style="fill:#808080" d="M230 292 L229 291 L230 292 z"/>
<path style="fill:#a0a0a0" d="M220 292 L219 293 L220 292 z"/>
<path style="fill:#606060" d="M232 293 L231 292 L232 293 z"/>
<path style="fill:#606060" d="M388 292 C388.2 293.3 385.8 293.3 386 292 L388 292 z"/>
<path style="fill:#a0a0a0" d="M235 294 L234 293 L235 294 z"/>
<path style="fill:#a0a0a0" d="M373 294 L372 293 L373 294 z"/>
<path style="fill:#808080" d="M237 295 L236 294 L237 295 z"/>
<path style="fill:#606060" d="M239 296 L238 295 L239 296 z"/>
<path style="fill:#606060" d="M217 296 L216 297 L217 296 z"/>
<path style="fill:#a0a0a0" d="M242 297 L241 296 L242 297 z"/>
<path style="fill:#808080" d="M378 297 L377 296 L378 297 z"/>
<path style="fill:#909090" d="M216 297 L215 298 L216 297 z"/>
<path style="fill:#808080" d="M244 298 L243 297 L244 298 z"/>
<path style="fill:#606060" d="M380 298 L379 297 L380 298 z"/>
<path style="fill:#606060" d="M246 299 L245 298 L246 299 z"/>
<path style="fill:#a0a0a0" d="M249 300 L248 299 L249 300 z"/>
<path style="fill:#808080" d="M251 301 L250 300 L251 301 z"/>
<path style="fill:#606060" d="M253 302 L252 301 L253 302 z"/>
<path style="fill:#707070" d="M212 302 L211 303 L212 302 z"/>
<path style="fill:#a0a0a0" d="M256 303 L255 302 L256 303 z"/>
<path style="fill:#808080" d="M385 302 L384 303 L385 302 z"/>
<path style="fill:#a0a0a0" d="M211 303 L210 304 L211 303 z"/>
<path style="fill:#808080" d="M258 304 L257 303 L258 304 z"/>
<path style="fill:#606060" d="M260 305 L259 304 L260 305 z"/>
<path style="fill:#909090" d="M265 307 L264 306 L265 307 z"/>
<path style="fill:#606060" d="M208 307 L207 308 L208 307 z"/>
<path style="fill:#606060" d="M267 308 L266 307 L267 308 z"/>
<path style="fill:#909090" d="M383 307 L382 308 L383 307 z"/>
<path style="fill:#909090" d="M207 308 L206 309 L207 308 z"/>
<path style="fill:#909090" d="M272 310 L271 309 L272 310 z"/>
<path style="fill:#606060" d="M274 311 L273 310 L274 311 z"/>
<path style="fill:#606060" d="M382 310 L381 311 L382 310 z"/>
<path style="fill:#909090" d="M279 313 L278 312 L279 313 z"/>
<path style="fill:#909090" d="M381 312 L380 313 L381 312 z"/>
<path style="fill:#707070" d="M203 313 L202 314 L203 313 z"/>
<path style="fill:#606060" d="M281 314 L280 313 L281 314 z"/>
<path style="fill:#a0a0a0" d="M202 314 L201 315 L202 314 z"/>
<path style="fill:#a0a0a0" d="M286 316 L285 315 L286 316 z"/>
<path style="fill:#707070" d="M288 317 L287 316 L288 317 z"/>
<path style="fill:#707070" d="M379 317 L378 318 L379 317 z"/>
<path style="fill:#606060" d="M199 318 L198 319 L199 318 z"/>
<path style="fill:#a0a0a0" d="M293 319 L292 318 L293 319 z"/>
<path style="fill:#909090" d="M198 319 L197 320 L198 319 z"/>
<path style="fill:#707070" d="M295 320 L294 319 L295 320 z"/>
<path style="fill:#a0a0a0" d="M378 319 L377 320 L378 319 z"/>
<path style="fill:#a0a0a0" d="M300 322 L299 321 L300 322 z"/>
<path style="fill:#707070" d="M302 323 L301 322 L302 323 z"/>
<path style="fill:#606060" d="M377 322 L376 323 L377 322 z"/>
<path style="fill:#707070" d="M194 324 L193 325 L194 324 z"/>
<path style="fill:#a0a0a0" d="M307 325 L306 324 L307 325 z"/>
<path style="fill:#707070" d="M376 324 L375 325 L376 324 z"/>
<path style="fill:#a0a0a0" d="M193 325 L192 326 L193 325 z"/>
<path style="fill:#707070" d="M309 326 L308 325 L309 326 z"/>
<path style="fill:#808080" d="M375 326 L374 327 L375 326 z"/>
<path style="fill:#a0a0a0" d="M314 328 L313 327 L314 328 z"/>
<path style="fill:#808080" d="M316 329 L315 328 L316 329 z"/>
<path style="fill:#a0a0a0" d="M374 328 L373 329 L374 328 z"/>
<path style="fill:#606060" d="M190 329 L189 330 L190 329 z"/>
<path style="fill:#606060" d="M318 330 L317 329 L318 330 z"/>
<path style="fill:#909090" d="M189 330 L188 331 L189 330 z"/>
<path style="fill:#a0a0a0" d="M321 331 L320 330 L321 331 z"/>
<path style="fill:#808080" d="M323 332 L322 331 L323 332 z"/>
<path style="fill:#606060" d="M325 333 L324 332 L325 333 z"/>
<path style="fill:#a0a0a0" d="M328 334 L327 333 L328 334 z"/>
<path style="fill:#808080" d="M330 335 L329 334 L330 335 z"/>
<path style="fill:#707070" d="M185 335 L184 336 L185 335 z"/>
<path style="fill:#606060" d="M332 336 L331 335 L332 336 z"/>
<path style="fill:#a0a0a0" d="M184 336 L183 337 L184 336 z"/>
<path style="fill:#a0a0a0" d="M335 337 L334 336 L335 337 z"/>
<path style="fill:#808080" d="M337 338 L336 337 L337 338 z"/>
<path style="fill:#606060" d="M339 339 L338 338 L339 339 z"/>
<path style="fill:#a0a0a0" d="M342 340 L341 339 L342 340 z"/>
<path style="fill:#606060" d="M181 340 L180 341 L181 340 z"/>
<path style="fill:#808080" d="M344 341 L343 340 L344 341 z"/>
<path style="fill:#a0a0a0" d="M368 340 L367 341 L368 340 z"/>
<path style="fill:#a0a0a0" d="M180 341 L179 342 L180 341 z"/>
<path style="fill:#606060" d="M346 342 L345 341 L346 342 z"/>
<path style="fill:#a0a0a0" d="M349 343 L348 342 L349 343 z"/>
<path style="fill:#707070" d="M367 342 L366 343 L367 342 z"/>
<path style="fill:#808080" d="M351 344 L350 343 L351 344 z"/>
<path style="fill:#606060" d="M353 345 L352 344 L353 345 z"/>
<path style="fill:#a0a0a0" d="M356 346 L355 345 L356 346 z"/>
<path style="fill:#808080" d="M365 345 L364 346 L365 345 z"/>
<path style="fill:#808080" d="M176 346 L175 347 L176 346 z"/>
<path style="fill:#808080" d="M358 347 L357 346 L358 347 z"/>
<path style="fill:#a0a0a0" d="M175 347 L174 348 L175 347 z"/>
<path style="fill:#606060" d="M360 348 L359 347 L360 348 z"/>
<path style="fill:#606060" d="M172 351 L171 352 L172 351 z"/>
<path style="fill:#a0a0a0" d="M171 352 L170 353 L171 352 z"/>
<path style="fill:#808080" d="M167 357 L166 358 L167 357 z"/>
<path style="fill:#a0a0a0" d="M166 358 L165 359 L166 358 z"/>
<path style="fill:#a8a8a8" d="M460 358 C460 358.7 460.2 360.2 459 360 L459 358 L460 358 z"/>
<path style="fill:#606060" d="M459 361 L458 362 L459 361 z"/>
<path style="fill:#606060" d="M163 362 L162 363 L163 362 z"/>
<path style="fill:#a0a0a0" d="M162 363 L161 364 L162 363 z"/>
<path style="fill:#606060" d="M159 367 L158 368 L159 367 z"/>
<path style="fill:#808080" d="M158 368 L157 369 L158 368 z"/>
<path style="fill:#a0a0a0" d="M455 368 L454 369 L455 368 z"/>
<path style="fill:#808080" d="M454 369 L453 370 L454 369 z"/>
<path style="fill:#a0a0a0" d="M453 370 L452 371 L453 370 z"/>
<path style="fill:#707070" d="M450 372 L449 373 L450 372 z"/>
<path style="fill:#606060" d="M154 373 L153 374 L154 373 z"/>
<path style="fill:#606060" d="M448 373 L447 374 L448 373 z"/>
<path style="fill:#808080" d="M153 374 L441 375 C347.2 376 242.5 378 153 374 z"/>
<path style="fill:#787878" d="M446 374 C446.2 375.2 444.7 375 444 375 C443.8 373.8 445.3 374 446 374 z"/>
<path style="fill:#404040" d="M462 387 L462 388 L452 388 L462 387 z"/>
<path style="fill:#909090" d="M462 389 L462 388 L462 387 C463.3 386.8 463.3 389.2 462 389 z"/>
<path style="fill:#0d0e0e" d="M467 389 L468 390 L468 392 L469 393 L469 395 L470 396 L470 397 L471 399 L471 400 L469 400 L469 399 L468 398 L468 396 L467 395 L467 392 C463.7 387.1 465.4 397.8 465 400 L464 400 C464.1 396.7 462.8 382.8 467 389 z"/>
<path style="fill:#080808" d="M476 387 L475 400 L474 392 L473 391 L473 389 L474 388 C473.8 386.8 475.3 387 476 387 z"/>
<path style="fill:#868686" d="M475 400 L476 387 C477.4 389.3 478.4 401.9 475 400 z"/>
<path style="fill:#0" d="M462 388 L462 389 L459 389 L458 400 L457 400 L456 389 L452 388 L462 388 z"/>
<path style="fill:#909090" d="M474 388 L473 389 L474 388 z"/>
<path style="fill:#404040" d="M457 400 L456 400 L456 389 L457 400 z"/>
<path style="fill:#c0c0c0" d="M459 389 L458 400 L459 389 z"/>
<path style="fill:#909090" d="M468 390 L467 389 L468 390 z"/>
<path style="fill:#3b3c3c" d="M467 392 L466 400 L465 400 C465.4 397.8 463.7 387.1 467 392 z"/>
<path style="fill:#2c2c2c" d="M473 391 L474 392 L473 394 L473 396 L472 397 L472 399 L471 399 L470 397 L473 391 z"/>
<path style="fill:#7e7e7e" d="M475 400 L473 394 L474 392 L475 400 z"/>
<path style="fill:#909090" d="M469 393 L468 392 L469 393 z"/>
<path style="fill:#909090" d="M468 396 L467 395 L468 396 z"/>
<path style="fill:#909090" d="M470 396 L469 395 L470 396 z"/>
<path style="fill:#909090" d="M473 396 L472 397 L473 396 z"/>
<path style="fill:#888888" d="M166 397 C166.2 398.2 164.7 398 164 398 C163.8 396.8 165.3 397 166 397 z"/>
<path style="fill:#0" d="M175 397 C174.8 398.2 176.3 398 177 398 L179 398 L180 399 L183 400 L184 401 L185 402 L186 403 L187 404 L188 406 C187.6 407.1 189.4 407.1 189 406 L190 405 L191 404 L192 403 L195 401 L196 400 L202 398 C202.7 398 204.2 398.2 204 397 L211 397 C211.1 398.6 213.1 397.8 214 398 L217 398 L218 399 L219 399 L220 400 L222 401 L223 402 L224 403 L225 405 L226 406 L226 407 L227 408 L227 409 C227 409.7 226.8 411.2 228 411 L228 414 L228 457 L206.3 456.8 L206 421 C206 420.3 206.2 418.8 205 419 L204 417 L203 416 L202 416 L201 415 L196 415 L195 416 C193.5 416.7 191.7 418.1 192 420 L191 421 L191 422 L190 457 L168 457 L168 421 C168 420.3 168.2 418.8 167 419 L166 417 L165 416 C163 414.4 160.4 415.1 158 415 L157 416 L154 419 L153 420 L153 421 C151.8 420.8 152 422.3 152 423 L152 457 L130 457 L130 399 L150 399 C150.1 400.8 149.1 408.1 152 405 L153 404 L154 403 L155 402 L157 401 L158 400 L164 398 C164.7 398 166.2 398.2 166 397 L175 397 z"/>
<path style="fill:#707070" d="M177 398 C176.3 398 174.8 398.2 175 397 C175.7 397 177.2 396.8 177 398 z"/>
<path style="fill:#808080" d="M204 397 C204.2 398.2 202.7 398 202 398 C201.8 396.8 203.3 397 204 397 z"/>
<path style="fill:#4a4b4b" d="M214 398 C213.1 397.8 211.1 398.6 211 397 C211.9 397.2 213.9 396.4 214 398 z"/>
<path style="fill:#696a6a" d="M269 397 L264 398 L269 397 z"/>
<path style="fill:#010101" d="M276 397 L280 398 L282 398 L284 398 C283.8 399.2 285.3 399 286 399 L287 399 L288 400 L290 400 L291 401 L296 404 L297 405 L298 406 L299 407 L300 408 L303 413 L304 414 L304 416 L305 417 L305 419 C305 419.7 304.8 421.2 306 421 L306 424 L306 432 L306 434 C304.8 433.8 305 435.3 305 436 L305 438 L304 439 L304 441 L303 442 L300 447 L299 448 L298 449 L297 450 L296 451 L293 453 L292 454 L291 454 L290 455 L289 455 L288 456 L282 457 C281.1 457.2 279.1 456.4 279 458 L276 458 L269 458 L265 458 C265.2 456.8 263.7 457 263 457 L261 457 C261.2 455.8 259.7 456 259 456 L258 456 L257 455 L252 453 L251 452 L245 446 L244 445 L243 443 L242 442 L242 441 L241 440 L241 439 C241 438.3 241.2 436.8 240 437 L240 435 C240 434.3 240.2 432.8 239 433 L239 423 C240.2 423.2 240 421.7 240 421 L240 419 C241.2 419.2 241 417.7 241 417 C241.3 414 243.4 411.5 245 409 L246 408 L249 405 L250 404 L251 403 L253 402 L254 401 L255 401 L256 400 L257 400 L258 399 L260 399 C260.7 399 262.2 399.2 262 398 L264 398 L269 397 L276 397 z"/>
<path style="fill:#545454" d="M280 397 L280 398 L276 397 L280 397 z"/>
<path style="fill:#b0b0b0" d="M282 398 L280 398 L280 397 C280.7 397 282.2 396.8 282 398 z"/>
<path style="fill:#909090" d="M354 397 C354.2 398.2 352.7 398 352 398 C351.8 396.8 353.3 397 354 397 z"/>
<path style="fill:#0" d="M364 397 C363.8 398.2 365.3 398 366 398 L367 398 L368 399 L369 399 L370 400 L372 401 L373 402 L374 403 L375 404 L377 409 C377 409.7 376.8 411.2 378 411 L378 412 L378 416 L378 457 L356.3 456.8 L356 421 C356 420.3 356.2 418.8 355 419 L355 418 L354 417 L353 416 C350.4 414.5 346.6 414.5 344 416 L343 417 L342 418 L341 419 L341 420 C339.8 419.8 340 421.3 340 422 L340 423 L339 457 L317 457 L317 399 L338 399 L339 406 L340 405 L341 404 L342 403 L345 401 L346 400 L347 400 L348 399 L349 399 L350 398 L352 398 C352.7 398 354.2 398.2 354 397 L364 397 z"/>
<path style="fill:#b0b0b0" d="M366 398 C365.3 398 363.8 398.2 364 397 C364.7 397 366.2 396.8 366 398 z"/>
<path style="fill:#696a6a" d="M419 397 L414 398 L419 397 z"/>
<path style="fill:#010101" d="M426 397 L431 398 L434 398 C433.8 399.2 435.3 399 436 399 L437 399 L438 400 L440 400 L441 401 L446 404 L447 405 L448 406 L449 407 L450 408 L453 413 L454 414 L454 416 L455 417 L455 418 C455 418.7 454.8 420.2 456 420 L456 426 L456 432 L456 435 C454.8 434.8 455 436.3 455 437 L455 438 C453.8 437.8 454 439.3 454 440 L454 441 L453 442 L450 447 L449 448 L448 449 L447 450 L446 451 L445 452 L443 453 L442 454 L441 454 L440 455 L439 455 L438 456 L437 456 C436.3 456 434.8 455.8 435 457 L432 457 C431.1 457.2 429.1 456.4 429 458 L426 458 L419 458 L415 458 C415.2 456.8 413.7 457 413 457 L411 457 C411.2 455.8 409.7 456 409 456 L408 456 L407 455 L402 453 L401 452 L395 446 L394 445 L393 443 L392 442 L392 441 L391 440 L391 438 L390 437 L390 434 L389 430 L389 423 C390.2 423.2 390 421.7 390 421 L390 419 C391.2 419.2 391 417.7 391 417 L391 416 L392 415 L393 412 L394 411 L395 409 L396 408 L397 407 L398 406 L399 405 L400 404 L401 403 L403 402 L404 401 L405 401 L406 400 L407 400 C407.7 400 409.2 400.2 409 399 L410 399 C410.7 399 412.2 399.2 412 398 L414 398 L419 397 L426 397 z"/>
<path style="fill:#606060" d="M431 398 L426 397 L431 398 z"/>
<path style="fill:#808181" d="M130 398 L130 399 L130 457 C128.3 438.7 128.3 416.3 130 398 z"/>
<path style="fill:#404040" d="M150 398 L150 399 L130 399 L130 398 L150 398 z"/>
<path style="fill:#878787" d="M152 405 C149.1 408.1 150.1 400.8 150 399 L150 398 L152 405 z"/>
<path style="fill:#606060" d="M180 399 L179 398 L180 399 z"/>
<path style="fill:#909090" d="M218 399 L217 398 L218 399 z"/>
<path style="fill:#787878" d="M262 398 C262.2 399.2 260.7 399 260 399 C259.8 397.8 261.3 398 262 398 z"/>
<path style="fill:#909090" d="M286 399 C285.3 399 283.8 399.2 284 398 C284.7 398 286.2 397.8 286 399 z"/>
<path style="fill:#c0c0c0" d="M317 398 L317 399 L317 457 C315.3 438.7 315.3 416.3 317 398 z"/>
<path style="fill:#404040" d="M338 399 L317 399 L317 398 L338 399 z"/>
<path style="fill:#707070" d="M350 398 L349 399 L350 398 z"/>
<path style="fill:#808080" d="M368 399 L367 398 L368 399 z"/>
<path style="fill:#787878" d="M412 398 C412.2 399.2 410.7 399 410 399 C409.8 397.8 411.3 398 412 398 z"/>
<path style="fill:#909090" d="M436 399 C435.3 399 433.8 399.2 434 398 C434.7 398 436.2 397.8 436 399 z"/>
<path style="fill:#a0a0a0" d="M469 399 L468 398 L469 399 z"/>
<path style="fill:#808080" d="M220 400 L219 399 L220 400 z"/>
<path style="fill:#a0a0a0" d="M258 399 L257 400 L258 399 z"/>
<path style="fill:#606060" d="M288 400 L287 399 L288 400 z"/>
<path style="fill:#606060" d="M348 399 L347 400 L348 399 z"/>
<path style="fill:#707070" d="M370 400 L369 399 L370 400 z"/>
<path style="fill:#787878" d="M409 399 C409.2 400.2 407.7 400 407 400 C406.8 398.8 408.3 399 409 399 z"/>
<path style="fill:#606060" d="M438 400 L437 399 L438 400 z"/>
<path style="fill:#a0a0a0" d="M472 399 L471 400 L471 399 L472 399 z"/>
<path style="fill:#707070" d="M158 400 L157 401 L158 400 z"/>
<path style="fill:#a0a0a0" d="M184 401 L183 400 L184 401 z"/>
<path style="fill:#808080" d="M196 400 L195 401 L196 400 z"/>
<path style="fill:#808080" d="M256 400 L255 401 L256 400 z"/>
<path style="fill:#a0a0a0" d="M291 401 L290 400 L291 401 z"/>
<path style="fill:#808080" d="M346 400 L345 401 L346 400 z"/>
<path style="fill:#808080" d="M406 400 L405 401 L406 400 z"/>
<path style="fill:#a0a0a0" d="M441 401 L440 400 L441 401 z"/>
<path style="fill:#909090" d="M457 400 L458 400 C458.2 401.3 455.8 401.3 456 400 L457 400 z"/>
<path style="fill:#909090" d="M465 400 L466 400 C466.2 401.3 463.8 401.3 464 400 L465 400 z"/>
<path style="fill:#909090" d="M471 400 C471.2 401.3 468.8 401.3 469 400 L471 400 z"/>
<path style="fill:#808080" d="M185 402 L184 401 L185 402 z"/>
<path style="fill:#a0a0a0" d="M223 402 L222 401 L223 402 z"/>
<path style="fill:#909090" d="M254 401 L253 402 L254 401 z"/>
<path style="fill:#a0a0a0" d="M373 402 L372 401 L373 402 z"/>
<path style="fill:#a0a0a0" d="M404 401 L403 402 L404 401 z"/>
<path style="fill:#a0a0a0" d="M155 402 L154 403 L155 402 z"/>
<path style="fill:#808080" d="M186 403 L185 402 L186 403 z"/>
<path style="fill:#a0a0a0" d="M224 403 L223 402 L224 403 z"/>
<path style="fill:#808080" d="M374 403 L373 402 L374 403 z"/>
<path style="fill:#a0a0a0" d="M154 403 L153 404 L154 403 z"/>
<path style="fill:#a0a0a0" d="M187 404 L186 403 L187 404 z"/>
<path style="fill:#a0a0a0" d="M192 403 L191 404 L192 403 z"/>
<path style="fill:#909090" d="M251 403 L250 404 L251 403 z"/>
<path style="fill:#a0a0a0" d="M342 403 L341 404 L342 403 z"/>
<path style="fill:#a0a0a0" d="M375 404 L374 403 L375 404 z"/>
<path style="fill:#a0a0a0" d="M401 403 L400 404 L401 403 z"/>
<path style="fill:#a0a0a0" d="M153 404 L152 405 L153 404 z"/>
<path style="fill:#a0a0a0" d="M191 404 L190 405 L191 404 z"/>
<path style="fill:#606060" d="M250 404 L249 405 L250 404 z"/>
<path style="fill:#a0a0a0" d="M297 405 L296 404 L297 405 z"/>
<path style="fill:#a0a0a0" d="M341 404 L340 405 L341 404 z"/>
<path style="fill:#606060" d="M400 404 L399 405 L400 404 z"/>
<path style="fill:#909090" d="M447 405 L446 404 L447 405 z"/>
<path style="fill:#a0a0a0" d="M190 405 L189 406 L190 405 z"/>
<path style="fill:#606060" d="M226 406 L225 405 L226 406 z"/>
<path style="fill:#808080" d="M298 406 L297 405 L298 406 z"/>
<path style="fill:#a0a0a0" d="M340 405 L339 406 L340 405 z"/>
<path style="fill:#606060" d="M399 405 L398 406 L399 405 z"/>
<path style="fill:#606060" d="M448 406 L447 405 L448 406 z"/>
<path style="fill:#606060" d="M189 406 C189.4 407.1 187.6 407.1 188 406 L189 406 z"/>
<path style="fill:#808080" d="M299 407 L298 406 L299 407 z"/>
<path style="fill:#606060" d="M398 406 L397 407 L398 406 z"/>
<path style="fill:#606060" d="M449 407 L448 406 L449 407 z"/>
<path style="fill:#606060" d="M227 408 L226 407 L227 408 z"/>
<path style="fill:#a0a0a0" d="M300 408 L299 407 L300 408 z"/>
<path style="fill:#606060" d="M397 407 L396 408 L397 407 z"/>
<path style="fill:#909090" d="M450 408 L449 407 L450 408 z"/>
<path style="fill:#707070" d="M246 408 L245 409 L246 408 z"/>
<path style="fill:#808080" d="M396 408 L395 409 L396 408 z"/>
<path style="fill:#787878" d="M228 411 C226.8 411.2 227 409.7 227 409 C228.2 408.8 228 410.3 228 411 z"/>
<path style="fill:#686868" d="M378 411 C376.8 411.2 377 409.7 377 409 C378.2 408.8 378 410.3 378 411 z"/>
<path style="fill:#606060" d="M394 411 L393 412 L394 411 z"/>
<path style="fill:#909090" d="M379 416 L378 416 L378 412 L379 416 z"/>
<path style="fill:#606060" d="M269 413 L268 414 L269 413 z"/>
<path style="fill:#fdfefe" d="M276 413 L277 414 L278 414 L279 415 L280 416 L281 417 L282 419 C282 419.7 281.8 421.2 283 421 L283 423 L283 432 L283 435 L282 436 L282 437 L281 438 L278 441 L277 442 L276 442 L270 442 L268 442 L267 441 L265 439 L264 438 L263 435 L262 434 L262 431 L262 425 L262 422 C263.2 422.2 263 420.7 263 420 L263 419 L264 418 L268 414 L269 413 L276 413 z"/>
<path style="fill:#a0a0a0" d="M277 414 L276 413 L277 414 z"/>
<path style="fill:#a0a0a0" d="M304 414 L303 413 L304 414 z"/>
<path style="fill:#606060" d="M419 413 L418 414 L419 413 z"/>
<path style="fill:#fdfdfd" d="M426 413 L427 414 L428 414 L429 415 L430 416 L431 417 L432 418 L432 419 L433 420 L433 423 L433 432 L433 435 L432 436 L431 439 L430 440 L429 441 L426 442 L425 443 L421 443 C421.2 441.8 419.7 442 419 442 L417 441 L416 440 L415 439 L414 438 L413 435 C413 434.3 413.2 432.8 412 433 L412 423 C413.2 423.2 413 421.7 413 421 L413 419 L414 418 L418 414 L419 413 L426 413 z"/>
<path style="fill:#a0a0a0" d="M427 414 L426 413 L427 414 z"/>
<path style="fill:#a0a0a0" d="M454 414 L453 413 L454 414 z"/>
<path style="fill:#434343" d="M228 457 L228 414 C229.7 427 229.7 444 228 457 z"/>
<path style="fill:#808080" d="M279 415 L278 414 L279 415 z"/>
<path style="fill:#909090" d="M429 415 L428 414 L429 415 z"/>
<path style="fill:#a0a0a0" d="M158 415 L157 416 L158 415 z"/>
<path style="fill:#606060" d="M196 415 L195 416 L196 415 z"/>
<path style="fill:#a0a0a0" d="M202 416 L201 415 L202 416 z"/>
<path style="fill:#a0a0a0" d="M280 416 L279 415 L280 416 z"/>
<path style="fill:#606060" d="M392 415 L391 416 L392 415 z"/>
<path style="fill:#606060" d="M166 417 L165 416 L166 417 z"/>
<path style="fill:#606060" d="M204 417 L203 416 L204 417 z"/>
<path style="fill:#a0a0a0" d="M281 417 L280 416 L281 417 z"/>
<path style="fill:#606060" d="M305 417 L304 416 L305 417 z"/>
<path style="fill:#a0a0a0" d="M344 416 L343 417 L344 416 z"/>
<path style="fill:#808080" d="M354 417 L353 416 L354 417 z"/>
<path style="fill:#404040" d="M379 416 L378 457 L378 416 L379 416 z"/>
<path style="fill:#a0a0a0" d="M431 417 L430 416 L431 417 z"/>
<path style="fill:#606060" d="M455 417 L454 416 L455 417 z"/>
<path style="fill:#686868" d="M241 417 C241 417.7 241.2 419.2 240 419 C240 418.3 239.8 416.8 241 417 z"/>
<path style="fill:#a0a0a0" d="M343 417 L342 418 L343 417 z"/>
<path style="fill:#707070" d="M355 418 L354 417 L355 418 z"/>
<path style="fill:#787878" d="M391 417 C391 417.7 391.2 419.2 390 419 C390 418.3 389.8 416.8 391 417 z"/>
<path style="fill:#707070" d="M432 418 L431 417 L432 418 z"/>
<path style="fill:#808080" d="M264 418 L263 419 L264 418 z"/>
<path style="fill:#808080" d="M342 418 L341 419 L342 418 z"/>
<path style="fill:#606060" d="M414 418 L413 419 L414 418 z"/>
<path style="fill:#989898" d="M456 420 C454.8 420.2 455 418.7 455 418 C456.2 417.8 456 419.3 456 420 z"/>
<path style="fill:#808080" d="M154 419 L153 420 L154 419 z"/>
<path style="fill:#686868" d="M168 421 L167 421 L167 419 C168.2 418.8 168 420.3 168 421 z"/>
<path style="fill:#989898" d="M206 421 C204.8 421.2 205 419.7 205 419 C206.2 418.8 206 420.3 206 421 z"/>
<path style="fill:#888888" d="M283 421 C281.8 421.2 282 419.7 282 419 C283.2 418.8 283 420.3 283 421 z"/>
<path style="fill:#686868" d="M306 421 C304.8 421.2 305 419.7 305 419 C306.2 418.8 306 420.3 306 421 z"/>
<path style="fill:#888888" d="M356 421 C354.8 421.2 355 419.7 355 419 C356.2 418.8 356 420.3 356 421 z"/>
<path style="fill:#606060" d="M433 420 L432 419 L433 420 z"/>
<path style="fill:#a0a0a0" d="M192 420 L191 421 L192 420 z"/>
<path style="fill:#707070" d="M263 420 C263 420.7 263.2 422.2 262 422 C262 421.3 261.8 419.8 263 420 z"/>
<path style="fill:#989898" d="M341 420 C341 420.7 341.2 422.2 340 422 C340 421.3 339.8 419.8 341 420 z"/>
<path style="fill:#606060" d="M153 421 L153 423 L152 423 C152 422.3 151.8 420.8 153 421 z"/>
<path style="fill:#bfc0c0" d="M168 421 L168 457 L167 421 L168 421 z"/>
<path style="fill:#707070" d="M240 421 C240 421.7 240.2 423.2 239 423 C239 422.3 238.8 420.8 240 421 z"/>
<path style="fill:#909090" d="M390 421 C390 421.7 390.2 423.2 389 423 C389 422.3 388.8 420.8 390 421 z"/>
<path style="fill:#a0a0a0" d="M413 421 C413 421.7 413.2 423.2 412 423 C412 422.3 411.8 420.8 413 421 z"/>
<path style="fill:#7c7c7c" d="M191 422 L190 457 L191 422 z"/>
<path style="fill:#bfbfbf" d="M153 423 L152 457 L152 423 L153 423 z"/>
<path style="fill:#888989" d="M283 432 L283 423 C284.7 424.7 284.7 430.3 283 432 z"/>
<path style="fill:#7c7d7d" d="M340 423 L339 457 L340 423 z"/>
<path style="fill:#a1a2a2" d="M433 432 L433 423 C434.7 424.7 434.7 430.3 433 432 z"/>
<path style="fill:#c4c4c4" d="M306 432 L306 424 C307.6 425.3 307.6 430.7 306 432 z"/>
<path style="fill:#404040" d="M262 425 L262 431 C260.4 430.3 260.4 425.7 262 425 z"/>
<path style="fill:#a0a0a0" d="M456 432 L456 426 C457.6 426.7 457.6 431.3 456 432 z"/>
<path style="fill:#585858" d="M390 434 L389 430 L390 434 z"/>
<path style="fill:#909090" d="M240 435 C238.8 435.2 239 433.7 239 433 C240.2 432.8 240 434.3 240 435 z"/>
<path style="fill:#808080" d="M413 435 C411.8 435.2 412 433.7 412 433 C413.2 432.8 413 434.3 413 435 z"/>
<path style="fill:#707070" d="M263 435 L262 434 L263 435 z"/>
<path style="fill:#707070" d="M306 434 C306 434.7 306.2 436.2 305 436 C305 435.3 304.8 433.8 306 434 z"/>
<path style="fill:#909090" d="M283 435 L282 436 L283 435 z"/>
<path style="fill:#a0a0a0" d="M433 435 L432 436 L433 435 z"/>
<path style="fill:#989898" d="M456 435 C456 435.7 456.2 437.2 455 437 C455 436.3 454.8 434.8 456 435 z"/>
<path style="fill:#888888" d="M241 439 C239.8 439.2 240 437.7 240 437 C241.2 436.8 241 438.3 241 439 z"/>
<path style="fill:#a0a0a0" d="M282 437 L281 438 L282 437 z"/>
<path style="fill:#707070" d="M391 438 L390 437 L391 438 z"/>
<path style="fill:#909090" d="M265 439 L264 438 L265 439 z"/>
<path style="fill:#606060" d="M305 438 L304 439 L305 438 z"/>
<path style="fill:#909090" d="M415 439 L414 438 L415 439 z"/>
<path style="fill:#888888" d="M455 438 C455 438.7 455.2 440.2 454 440 C454 439.3 453.8 437.8 455 438 z"/>
<path style="fill:#a0a0a0" d="M416 440 L415 439 L416 440 z"/>
<path style="fill:#606060" d="M431 439 L430 440 L431 439 z"/>
<path style="fill:#808080" d="M242 441 L241 440 L242 441 z"/>
<path style="fill:#a0a0a0" d="M392 441 L391 440 L392 441 z"/>
<path style="fill:#a0a0a0" d="M417 441 L416 440 L417 441 z"/>
<path style="fill:#606060" d="M430 440 L429 441 L430 440 z"/>
<path style="fill:#606060" d="M268 442 L267 441 L268 442 z"/>
<path style="fill:#a0a0a0" d="M278 441 L277 442 L278 441 z"/>
<path style="fill:#a0a0a0" d="M304 441 L303 442 L304 441 z"/>
<path style="fill:#a0a0a0" d="M454 441 L453 442 L454 441 z"/>
<path style="fill:#808080" d="M243 443 L242 442 L243 443 z"/>
<path style="fill:#aaabab" d="M276 442 C275.3 443.6 270.7 443.6 270 442 L276 442 z"/>
<path style="fill:#909090" d="M393 443 L392 442 L393 443 z"/>
<path style="fill:#707070" d="M421 443 C420.3 443 418.8 443.2 419 442 C419.7 442 421.2 441.8 421 443 z"/>
<path style="fill:#808080" d="M426 442 L425 443 L426 442 z"/>
<path style="fill:#707070" d="M245 446 L244 445 L245 446 z"/>
<path style="fill:#707070" d="M395 446 L394 445 L395 446 z"/>
<path style="fill:#a0a0a0" d="M300 447 L299 448 L300 447 z"/>
<path style="fill:#909090" d="M450 447 L449 448 L450 447 z"/>
<path style="fill:#707070" d="M299 448 L298 449 L299 448 z"/>
<path style="fill:#606060" d="M449 448 L448 449 L449 448 z"/>
<path style="fill:#606060" d="M298 449 L297 450 L298 449 z"/>
<path style="fill:#606060" d="M448 449 L447 450 L448 449 z"/>
<path style="fill:#a0a0a0" d="M297 450 L296 451 L297 450 z"/>
<path style="fill:#808080" d="M447 450 L446 451 L447 450 z"/>
<path style="fill:#a0a0a0" d="M446 451 L445 452 L446 451 z"/>
<path style="fill:#909090" d="M252 453 L251 452 L252 453 z"/>
<path style="fill:#909090" d="M402 453 L401 452 L402 453 z"/>
<path style="fill:#a0a0a0" d="M293 453 L292 454 L293 453 z"/>
<path style="fill:#909090" d="M443 453 L442 454 L443 453 z"/>
<path style="fill:#808080" d="M291 454 L290 455 L291 454 z"/>
<path style="fill:#808080" d="M441 454 L440 455 L441 454 z"/>
<path style="fill:#606060" d="M258 456 L257 455 L258 456 z"/>
<path style="fill:#a0a0a0" d="M289 455 L288 456 L289 455 z"/>
<path style="fill:#606060" d="M408 456 L407 455 L408 456 z"/>
<path style="fill:#909090" d="M439 455 L438 456 L439 455 z"/>
<path style="fill:#787878" d="M261 457 C260.3 457 258.8 457.2 259 456 C259.7 456 261.2 455.8 261 457 z"/>
<path style="fill:#808080" d="M411 457 C410.3 457 408.8 457.2 409 456 C409.7 456 411.2 455.8 411 457 z"/>
<path style="fill:#a8a8a8" d="M437 456 C437.2 457.2 435.7 457 435 457 C434.8 455.8 436.3 456 437 456 z"/>
<path style="fill:#888888" d="M265 458 C264.3 458 262.8 458.2 263 457 C263.7 457 265.2 456.8 265 458 z"/>
<path style="fill:#606060" d="M282 457 C281.9 458.6 279.9 457.8 279 458 C279.1 456.4 281.1 457.2 282 457 z"/>
<path style="fill:#888888" d="M415 458 C414.3 458 412.8 458.2 413 457 C413.7 457 415.2 456.8 415 458 z"/>
<path style="fill:#606060" d="M432 457 C431.9 458.6 429.9 457.8 429 458 C429.1 456.4 431.1 457.2 432 457 z"/>
<path style="fill:#c2c2c2" d="M276 458 C275 459.6 270 459.6 269 458 L276 458 z"/>
<path style="fill:#c2c2c2" d="M426 458 C425 459.6 420 459.6 419 458 L426 458 z"/>
</svg>
